<svg width="1138" height="968" viewBox="0 0 1138 968" fill="none" xmlns="http://www.w3.org/2000/svg">
<path d="M431.354 317.28C428.714 317.28 426.287 316.667 424.074 315.44C421.887 314.213 420.14 312.507 418.834 310.32C417.554 308.107 416.914 305.627 416.914 302.88C416.914 300.133 417.554 297.667 418.834 295.48C420.14 293.293 421.887 291.587 424.074 290.36C426.287 289.133 428.714 288.52 431.354 288.52C433.994 288.52 436.407 289.133 438.594 290.36C440.807 291.587 442.54 293.293 443.794 295.48C445.074 297.667 445.714 300.133 445.714 302.88C445.714 305.627 445.074 308.107 443.794 310.32C442.514 312.507 440.78 314.213 438.594 315.44C436.407 316.667 433.994 317.28 431.354 317.28ZM431.354 311.04C433.594 311.04 435.38 310.293 436.714 308.8C438.074 307.307 438.754 305.333 438.754 302.88C438.754 300.4 438.074 298.427 436.714 296.96C435.38 295.467 433.594 294.72 431.354 294.72C429.087 294.72 427.274 295.453 425.914 296.92C424.58 298.387 423.914 300.373 423.914 302.88C423.914 305.36 424.58 307.347 425.914 308.84C427.274 310.307 429.087 311.04 431.354 311.04ZM473.839 288.92V317H466.999V305.44H456.359V317H449.519V288.92H456.359V299.92H466.999V288.92H473.839ZM510.577 288.92V317H503.737V300.16L497.457 317H491.937L485.617 300.12V317H478.777V288.92H486.857L494.737 308.36L502.537 288.92H510.577ZM542.252 288.92V294.4H530.812V300.32H539.372V305.64H530.812V317H523.972V288.92H542.252ZM559.127 317.28C556.487 317.28 554.061 316.667 551.847 315.44C549.661 314.213 547.914 312.507 546.607 310.32C545.327 308.107 544.687 305.627 544.687 302.88C544.687 300.133 545.327 297.667 546.607 295.48C547.914 293.293 549.661 291.587 551.847 290.36C554.061 289.133 556.487 288.52 559.127 288.52C561.767 288.52 564.181 289.133 566.367 290.36C568.581 291.587 570.314 293.293 571.567 295.48C572.847 297.667 573.487 300.133 573.487 302.88C573.487 305.627 572.847 308.107 571.567 310.32C570.287 312.507 568.554 314.213 566.367 315.44C564.181 316.667 561.767 317.28 559.127 317.28ZM559.127 311.04C561.367 311.04 563.154 310.293 564.487 308.8C565.847 307.307 566.527 305.333 566.527 302.88C566.527 300.4 565.847 298.427 564.487 296.96C563.154 295.467 561.367 294.72 559.127 294.72C556.861 294.72 555.047 295.453 553.687 296.92C552.354 298.387 551.687 300.373 551.687 302.88C551.687 305.36 552.354 307.347 553.687 308.84C555.047 310.307 556.861 311.04 559.127 311.04ZM591.613 317L585.773 306.4H584.133V317H577.293V288.92H588.773C590.986 288.92 592.866 289.307 594.413 290.08C595.986 290.853 597.159 291.92 597.933 293.28C598.706 294.613 599.093 296.107 599.093 297.76C599.093 299.627 598.559 301.293 597.493 302.76C596.453 304.227 594.906 305.267 592.853 305.88L599.333 317H591.613ZM584.133 301.56H588.373C589.626 301.56 590.559 301.253 591.173 300.64C591.813 300.027 592.133 299.16 592.133 298.04C592.133 296.973 591.813 296.133 591.173 295.52C590.559 294.907 589.626 294.6 588.373 294.6H584.133V301.56ZM635.943 288.92L626.223 307.72V317H619.383V307.72L609.663 288.92H617.423L622.863 300.68L628.263 288.92H635.943ZM651.979 317.28C649.339 317.28 646.912 316.667 644.699 315.44C642.512 314.213 640.765 312.507 639.459 310.32C638.179 308.107 637.539 305.627 637.539 302.88C637.539 300.133 638.179 297.667 639.459 295.48C640.765 293.293 642.512 291.587 644.699 290.36C646.912 289.133 649.339 288.52 651.979 288.52C654.619 288.52 657.032 289.133 659.219 290.36C661.432 291.587 663.165 293.293 664.419 295.48C665.699 297.667 666.339 300.133 666.339 302.88C666.339 305.627 665.699 308.107 664.419 310.32C663.139 312.507 661.405 314.213 659.219 315.44C657.032 316.667 654.619 317.28 651.979 317.28ZM651.979 311.04C654.219 311.04 656.005 310.293 657.339 308.8C658.699 307.307 659.379 305.333 659.379 302.88C659.379 300.4 658.699 298.427 657.339 296.96C656.005 295.467 654.219 294.72 651.979 294.72C649.712 294.72 647.899 295.453 646.539 296.92C645.205 298.387 644.539 300.373 644.539 302.88C644.539 305.36 645.205 307.347 646.539 308.84C647.899 310.307 649.712 311.04 651.979 311.04ZM676.864 288.92V305.72C676.864 307.4 677.277 308.693 678.104 309.6C678.931 310.507 680.144 310.96 681.744 310.96C683.344 310.96 684.571 310.507 685.424 309.6C686.277 308.693 686.704 307.4 686.704 305.72V288.92H693.544V305.68C693.544 308.187 693.011 310.307 691.944 312.04C690.877 313.773 689.437 315.08 687.624 315.96C685.837 316.84 683.837 317.28 681.624 317.28C679.411 317.28 677.424 316.853 675.664 316C673.931 315.12 672.557 313.813 671.544 312.08C670.531 310.32 670.024 308.187 670.024 305.68V288.92H676.864Z" fill="white"/>
<path d="M713.432 317.512C711.512 317.512 709.933 316.957 708.696 315.848C707.501 314.696 706.904 313.288 706.904 311.624C706.904 309.917 707.501 308.488 708.696 307.336C709.933 306.184 711.512 305.608 713.432 305.608C715.309 305.608 716.845 306.184 718.04 307.336C719.277 308.488 719.896 309.917 719.896 311.624C719.896 313.288 719.277 314.696 718.04 315.848C716.845 316.957 715.309 317.512 713.432 317.512Z" fill="#C72425"/>
<path fill-rule="evenodd" clip-rule="evenodd" d="M444.682 129.201C438.323 133.153 432.885 136.241 428.581 140.24C418.848 149.285 419.017 157.599 419.017 166.874C419.017 176.153 420.383 186.643 427.529 196.047C431.032 200.661 436.528 201.537 442.661 206.237" fill="white"/>
<path d="M444.682 129.201C438.323 133.153 432.885 136.241 428.581 140.24C418.848 149.285 419.017 157.599 419.017 166.874C419.017 176.153 420.383 186.643 427.529 196.047C431.032 200.661 436.528 201.537 442.661 206.237" stroke="white" stroke-width="5" stroke-miterlimit="1.5" stroke-linecap="round" stroke-linejoin="round"/>
<path fill-rule="evenodd" clip-rule="evenodd" d="M460.777 127.607L442.585 129.094L441.88 206.775L461.098 210.02L460.777 127.607Z" fill="#C72425" stroke="#C72425" stroke-width="5" stroke-miterlimit="1.5" stroke-linecap="round" stroke-linejoin="round"/>
<mask id="mask0_1_855" style="mask-type:luminance" maskUnits="userSpaceOnUse" x="418" y="126" width="45" height="84">
<path d="M461.358 126.745C461.358 126.745 417.799 121.223 418.001 167.062C418.217 215.503 462.129 209.773 462.129 209.773" fill="white"/>
</mask>
<g mask="url(#mask0_1_855)">
<path fill-rule="evenodd" clip-rule="evenodd" d="M419.188 172.616L439.42 187.79L439.245 204.572C427.858 200.612 421.386 189.77 419.188 172.616Z" fill="#C72425"/>
</g>
<path d="M461.358 126.745C461.358 126.745 417.799 121.223 418.001 167.062C418.217 215.503 462.129 209.773 462.129 209.773" stroke="#421A00" stroke-width="5" stroke-miterlimit="1.5" stroke-linecap="round" stroke-linejoin="round"/>
<path d="M439.865 128.731L444.947 128.761L444.278 206.835L439.195 206.805L439.865 128.731Z" fill="#421A00"/>
<path fill-rule="evenodd" clip-rule="evenodd" d="M698.412 130.075C704.767 134.027 706.079 134.257 710.378 138.256C720.111 147.301 720.357 157.382 720.357 166.654C720.357 175.937 719.556 186.049 712.41 195.457C708.902 200.067 703.946 201.34 697.813 206.04" fill="white"/>
<path d="M698.412 130.075C704.767 134.027 706.079 134.257 710.378 138.256C720.111 147.301 720.357 157.382 720.357 166.654C720.357 175.937 719.556 186.049 712.41 195.457C708.902 200.067 703.946 201.34 697.813 206.04" stroke="white" stroke-width="5" stroke-miterlimit="1.5" stroke-linecap="round" stroke-linejoin="round"/>
<path fill-rule="evenodd" clip-rule="evenodd" d="M678.223 127.607L696.415 129.094L697.12 206.775L677.902 210.02L678.223 127.607Z" fill="#C72425" stroke="#C72425" stroke-width="5" stroke-miterlimit="1.5" stroke-linecap="round" stroke-linejoin="round"/>
<path fill-rule="evenodd" clip-rule="evenodd" d="M719.631 172.836L699.399 188.011L699.574 204.793C710.96 200.833 717.432 189.99 719.631 172.836Z" fill="#C72425"/>
<path d="M677.641 126.745C677.641 126.745 721.201 121.223 720.999 167.062C720.783 215.503 676.871 209.773 676.871 209.773" stroke="#421A00" stroke-width="5" stroke-miterlimit="1.5" stroke-linecap="round" stroke-linejoin="round"/>
<path d="M699.135 128.731L694.053 128.761L694.722 206.835L699.805 206.805L699.135 128.731Z" fill="#421A00"/>
<path fill-rule="evenodd" clip-rule="evenodd" d="M677.243 131.264C677.243 98.7789 650.868 72.4053 618.382 72.4053H521.064C488.578 72.4053 462.203 98.7789 462.203 131.264V203.416C462.203 235.902 488.578 262.276 521.064 262.276H618.382C650.868 262.276 677.243 235.902 677.243 203.416V131.264Z" fill="white"/>
<path fill-rule="evenodd" clip-rule="evenodd" d="M471.097 233.879C471.097 233.879 491.497 244.422 502.038 244.971C530.149 246.431 612.984 245.571 640.583 243.992C650.013 243.453 667.624 235.497 667.624 235.497C658.439 246.623 646.233 255.403 630.42 261.377L510.187 260.838C493.8 255.546 480.492 245.428 471.097 233.879Z" fill="#C72425"/>
<path fill-rule="evenodd" clip-rule="evenodd" d="M677.316 130.591C677.316 98.105 650.941 71.7314 618.455 71.7314H521.137C488.651 71.7314 462.276 98.105 462.276 130.591V202.743C462.276 235.228 488.651 261.602 521.137 261.602H618.455C650.941 261.602 677.316 235.228 677.316 202.743V130.591Z" stroke="#421A00" stroke-width="5" stroke-miterlimit="1.5" stroke-linecap="round" stroke-linejoin="round"/>
<path fill-rule="evenodd" clip-rule="evenodd" d="M652.239 135.162C652.239 118.501 638.71 104.976 622.052 104.976H517.391C500.733 104.976 487.204 118.501 487.204 135.162V195.537C487.204 212.199 500.733 225.723 517.391 225.723H622.052C638.71 225.723 652.239 212.199 652.239 195.537V135.162Z" fill="#D6EAF5" stroke="#421A00" stroke-width="5" stroke-miterlimit="1.5" stroke-linecap="round" stroke-linejoin="round"/>
<path d="M528.941 177.615C536.865 177.615 543.288 171.191 543.288 163.268C543.288 155.344 536.865 148.921 528.941 148.921C521.018 148.921 514.594 155.344 514.594 163.268C514.594 171.191 521.018 177.615 528.941 177.615Z" fill="#421A00" stroke="#421A00" stroke-width="5" stroke-miterlimit="1.5" stroke-linecap="round" stroke-linejoin="round"/>
<path d="M522.283 164.031C524.564 164.031 526.413 162.127 526.413 159.779C526.413 157.431 524.564 155.528 522.283 155.528C520.002 155.528 518.153 157.431 518.153 159.779C518.153 162.127 520.002 164.031 522.283 164.031Z" fill="white"/>
<path d="M526.396 167.91C527.189 167.91 527.831 167.256 527.831 166.449C527.831 165.643 527.189 164.989 526.396 164.989C525.604 164.989 524.962 165.643 524.962 166.449C524.962 167.256 525.604 167.91 526.396 167.91Z" fill="white"/>
<path d="M615.016 178.19C622.94 178.19 629.363 171.767 629.363 163.843C629.363 155.919 622.94 149.496 615.016 149.496C607.093 149.496 600.669 155.919 600.669 163.843C600.669 171.767 607.093 178.19 615.016 178.19Z" fill="#421A00" stroke="#421A00" stroke-width="5" stroke-miterlimit="1.5" stroke-linecap="round" stroke-linejoin="round"/>
<path d="M608.891 165.974C611.373 165.974 613.385 163.962 613.385 161.48C613.385 158.998 611.373 156.985 608.891 156.985C606.409 156.985 604.397 158.998 604.397 161.48C604.397 163.962 606.409 165.974 608.891 165.974Z" fill="white"/>
<path d="M611.868 171.937C612.66 171.937 613.303 171.283 613.303 170.477C613.303 169.67 612.66 169.016 611.868 169.016C611.076 169.016 610.433 169.67 610.433 170.477C610.433 171.283 611.076 171.937 611.868 171.937Z" fill="white"/>
<path d="M567.463 36.3602H569.746V70.7349H567.463V36.3602Z" fill="#421A00" stroke="#421A00" stroke-width="5" stroke-miterlimit="1.5" stroke-linecap="round" stroke-linejoin="round"/>
<path d="M568.607 34.5638C559.891 34.5638 552.825 27.498 552.825 18.7819C552.825 10.0658 559.891 3 568.607 3C577.323 3 584.389 10.0658 584.389 18.7819C584.389 27.498 577.323 34.5638 568.607 34.5638Z" fill="#C72425" stroke="#421A00" stroke-width="5" stroke-miterlimit="1.5" stroke-linecap="round" stroke-linejoin="round"/>
</svg>
