<svg width="437" height="437" viewBox="0 0 437 437" fill="none" xmlns="http://www.w3.org/2000/svg">
<rect width="437" height="437" rx="100" fill="white"/>
<path d="M87.6656 225.152L92.3451 192.776H84.442L84.8233 190.497H92.6224L93.489 184.732C93.8818 182.051 94.7253 180.04 96.0193 178.699C97.3134 177.358 99.2083 176.688 101.704 176.688H106.522L106.21 178.967H100.768C99.2198 178.967 98.0991 179.425 97.4058 180.341C96.7357 181.235 96.2735 182.52 96.0193 184.196L95.1181 190.497H104.2L103.853 192.776H94.8061L90.1267 225.152H87.6656Z" fill="black"/>
<path d="M132.299 225.822C129.434 225.822 127.007 225.174 125.02 223.878C123.033 222.582 121.611 220.616 120.756 217.98C119.925 215.321 119.786 211.969 120.341 207.925C120.826 204.305 121.762 201.144 123.148 198.44C124.558 195.714 126.43 193.602 128.764 192.105C131.097 190.586 133.894 189.826 137.152 189.826C139.994 189.826 142.386 190.485 144.327 191.804C146.268 193.1 147.655 195.088 148.487 197.77C149.318 200.429 149.457 203.814 148.902 207.925C148.417 211.5 147.481 214.628 146.095 217.309C144.708 219.991 142.871 222.08 140.583 223.577C138.296 225.074 135.534 225.822 132.299 225.822ZM132.646 223.342C134.957 223.342 137.048 222.784 138.92 221.666C140.815 220.549 142.397 218.851 143.668 216.572C144.963 214.293 145.841 211.411 146.303 207.925C146.719 204.819 146.661 202.104 146.129 199.781C145.621 197.434 144.593 195.613 143.045 194.317C141.519 193.022 139.44 192.374 136.805 192.374C134.448 192.374 132.311 192.932 130.393 194.049C128.498 195.167 126.903 196.876 125.609 199.177C124.338 201.479 123.46 204.395 122.975 207.925C122.559 211.008 122.617 213.712 123.148 216.036C123.68 218.337 124.731 220.136 126.302 221.432C127.874 222.705 129.988 223.342 132.646 223.342Z" fill="black"/>
<path d="M168.935 225.152L173.995 190.497H176.283L175.555 195.658C176.364 194.094 177.335 192.899 178.467 192.072C179.622 191.223 180.824 190.642 182.072 190.329C183.32 189.994 184.475 189.826 185.538 189.826C186.208 189.826 186.867 189.882 187.514 189.994C188.161 190.083 188.669 190.251 189.039 190.497L188.658 193.178C188.242 192.954 187.664 192.798 186.925 192.709C186.185 192.619 185.584 192.575 185.122 192.575C184.082 192.575 182.823 192.798 181.344 193.245C179.888 193.692 178.548 194.53 177.323 195.759C176.098 196.965 175.313 198.719 174.966 201.021L171.465 225.152H168.935Z" fill="black"/>
<path d="M98.7192 340.595C94.0461 340.595 90.8366 340.273 89.0907 339.627C87.3447 338.982 86.4717 338.659 86.4717 338.659V329.721L94.6367 329.87C97.5637 329.97 100.003 329.771 101.954 329.275C103.906 328.778 105.472 328.108 106.653 327.264C107.834 326.42 108.733 325.476 109.349 324.433C110.017 323.391 110.556 322.398 110.967 321.454L113.74 314.155L82.6203 239.005H97.0245L120.518 298.44L143.858 239.005H157.8L124.292 321.827C122.187 326.693 119.85 330.491 117.283 333.222C114.767 335.953 111.942 337.865 108.81 338.957C105.729 340.049 102.365 340.595 98.7192 340.595Z" fill="black"/>
<path d="M202.074 317.507C194.73 317.507 188.311 315.992 182.817 312.964C177.373 309.885 173.137 305.391 170.107 299.483C167.077 293.574 165.563 286.349 165.563 277.809C165.563 269.765 166.975 262.715 169.799 256.657C172.623 250.599 176.757 245.907 182.201 242.58C187.644 239.204 194.294 237.516 202.151 237.516C209.494 237.516 215.862 239.08 221.254 242.208C226.646 245.286 230.831 249.83 233.809 255.838C236.839 261.846 238.354 269.17 238.354 277.809C238.354 285.654 236.967 292.556 234.194 298.514C231.421 304.473 227.339 309.14 221.947 312.517C216.606 315.843 209.982 317.507 202.074 317.507ZM202.151 306.633C206.875 306.633 210.881 305.466 214.167 303.132C217.454 300.799 219.944 297.447 221.639 293.077C223.385 288.708 224.258 283.519 224.258 277.511C224.258 272 223.488 267.059 221.947 262.69C220.458 258.271 218.096 254.77 214.86 252.188C211.625 249.606 207.389 248.315 202.151 248.315C197.324 248.315 193.241 249.482 189.903 251.816C186.565 254.1 184.024 257.427 182.278 261.796C180.583 266.165 179.736 271.404 179.736 277.511C179.736 282.923 180.48 287.839 181.97 292.258C183.51 296.677 185.924 300.178 189.21 302.76C192.548 305.342 196.862 306.633 202.151 306.633Z" fill="black"/>
<path d="M284.721 317.507C280.562 317.457 276.633 316.886 272.936 315.794C269.29 314.652 266.055 312.988 263.23 310.804C260.406 308.619 258.172 305.913 256.529 302.685C254.937 299.408 254.141 295.61 254.141 291.29V239.005H268.391V289.875C268.391 294.89 269.983 298.961 273.167 302.089C276.402 305.218 281.255 306.782 287.725 306.782C293.579 306.782 298.278 305.317 301.821 302.387C305.416 299.408 307.213 294.989 307.213 289.13V239.005H321.386V316.017H310.063L308.6 301.27C307.624 305.143 305.955 308.271 303.593 310.655C301.282 313.038 298.483 314.801 295.197 315.943C291.962 317.035 288.47 317.556 284.721 317.507Z" fill="black"/>
<path d="M227.479 122.278C227.813 108.622 219.493 96.2566 204.702 94.6178C197.665 94.0219 190.244 96.48 184.697 100.825C184.697 100.105 184.697 99.41 184.774 98.6899C184.954 91.0423 185.082 75.6476 185.031 68H169.572V165.085H185.031C185.031 165.085 185.031 137.822 185.031 129.405C185.031 129.405 185.031 126.053 185.031 122.85C185.185 118.529 186.032 114.01 189.422 111.502C193.428 108.572 200.696 108.076 205.292 110.062C209.195 111.85 210.659 114.556 211.661 118.703C211.917 120.317 212.097 124.339 212.097 129.429C212.097 141.075 211.892 161.932 212.046 165.085H227.505C227.479 162.106 227.556 124.29 227.505 122.278H227.479Z" fill="#C72426"/>
<path d="M340.033 150.982C340.033 150.982 339.904 150.982 339.827 151.007C339.827 138.989 339.853 123.545 339.827 122.278C340.264 109.143 331.687 95.5365 317.075 94.5184C307.959 93.8232 297.533 96.9518 291.884 104.227C287.98 98.9878 282.125 95.2633 274.627 94.4936C272.264 94.3694 269.876 94.5433 267.514 95.015C262.814 95.8841 258.295 97.945 254.597 100.825C254.545 98.7644 254.545 96.7283 254.597 94.6674H239.446V165.085H254.905L254.956 147.481V129.876C254.956 128.908 254.956 122.874 254.956 122.427C254.956 120.888 255.136 119.746 255.316 118.777C255.65 117.039 256.189 115.376 257.062 113.96C257.473 113.315 257.935 112.719 258.5 112.173C258.526 112.148 259.065 111.701 259.296 111.502C262.378 109.317 266.564 108.647 270.364 108.945C272.11 109.094 273.754 109.466 275.166 110.062C277.118 110.956 278.453 112.073 279.455 113.489C279.763 113.96 280.045 114.457 280.302 114.978C280.816 116.071 281.227 117.288 281.56 118.703C281.637 119.1 281.689 119.646 281.74 120.292C281.74 120.515 281.766 120.739 281.792 120.987C281.817 121.633 281.869 122.353 281.894 123.147C281.894 123.172 281.894 123.197 281.894 123.222C281.894 123.892 281.946 126.475 281.946 126.922C282.023 135.463 281.946 143.98 281.946 152.521C281.946 153.117 281.946 165.061 281.946 165.061C281.946 165.061 286.311 165.061 290.394 165.061C291.344 165.061 292.294 165.061 293.168 165.061C294.041 165.061 294.837 165.061 295.504 165.061H297.405C297.405 165.061 297.405 164.986 297.405 164.961C297.405 164.961 297.405 156.966 297.405 148.325C297.405 145.445 297.405 142.44 297.405 139.535C297.405 138.914 297.405 130.646 297.405 127.964C297.405 127.518 297.405 126.698 297.405 126.698C297.405 126.698 297.405 123.123 297.405 123.023C297.405 119.721 298.124 115.574 300.05 113.215C302.669 109.938 306.547 109.044 310.989 108.92C315.329 108.771 319.489 109.963 321.775 113.265C323.418 115.45 324.394 119.15 324.42 122.254V165.061H355.543V150.113C351.075 150.063 345.554 149.939 340.058 150.957L340.033 150.982Z" fill="#C72426"/>
<path d="M123.272 93.7487C107.787 93.9474 93.8171 100.85 88.9637 115.847C85.3429 126.872 86.4728 138.517 92.8926 148.4C93.4833 149.269 94.1509 150.088 94.87 150.858C89.6057 149.964 84.3157 150.063 79 150.113V165.061H118.213V150.609C107.145 149.169 102.856 141.919 102.728 129.057C102.343 114.879 109.122 107.207 123.323 106.909C132.439 107.008 140.554 111.055 142.814 119.969C144.354 125.506 144.252 132.93 142.891 138.468C141.093 146.19 135.521 149.691 128.407 150.609V164.713C131.232 164.415 134.134 163.918 137.087 163.049C157.888 157.165 163.28 133.973 157.554 115.897C152.649 100.999 138.756 93.9722 123.323 93.7487H123.272Z" fill="#C72426"/>
<path d="M338 298H356.023V316.023H338V298Z" fill="#C72426"/>
</svg>
