<svg width="587" height="1120" viewBox="0 0 587 1120" fill="none" xmlns="http://www.w3.org/2000/svg">
<g filter="url(#filter0_dddd_1_1137)">
<path d="M260.831 652.901H197.445V770.088H260.831V652.901Z" fill="white"/>
<path fill-rule="evenodd" clip-rule="evenodd" d="M227.904 661.967L228.222 678.28L228.863 749.735C228.863 749.735 248.818 751.11 259.612 758.35V663.844L227.904 661.967Z" fill="#61778C"/>
<path d="M260.831 652.901H197.445V770.088H260.831V652.901Z" stroke="#421A00" stroke-width="5" stroke-miterlimit="1.5" stroke-linecap="round" stroke-linejoin="round"/>
<path d="M271.876 687.1H185.985V719.032H271.876V687.1Z" fill="#EDC7C8" stroke="#421A00" stroke-width="5" stroke-miterlimit="1.5" stroke-linecap="round" stroke-linejoin="round"/>
<mask id="mask0_1_1137" style="mask-type:luminance" maskUnits="userSpaceOnUse" x="174" y="750" width="110" height="65">
<path d="M283.991 814.693L174.281 814.464C174.281 814.464 175.896 750.541 228.112 750.344C281.111 750.144 283.991 814.693 283.991 814.693Z" fill="white"/>
</mask>
<g mask="url(#mask0_1_1137)">
<path fill-rule="evenodd" clip-rule="evenodd" d="M181.648 791.393C181.648 791.393 201.312 786.281 228.121 786.245C244.001 786.221 276.931 791.164 276.931 791.164L281.739 812.233L177.295 811.775L181.648 791.393Z" fill="#C72425" stroke="#C72425" stroke-width="5" stroke-miterlimit="1.5" stroke-linecap="round" stroke-linejoin="round"/>
<path fill-rule="evenodd" clip-rule="evenodd" d="M276.336 788.239H182.15C182.15 788.239 192.661 752.505 229.43 752.698C264.548 752.882 276.336 788.239 276.336 788.239Z" fill="white" stroke="white" stroke-width="5" stroke-miterlimit="1.5" stroke-linecap="round" stroke-linejoin="round"/>
</g>
<path fill-rule="evenodd" clip-rule="evenodd" d="M283.991 814.693L174.281 814.464C174.281 814.464 175.896 750.541 228.112 750.344C281.111 750.144 283.991 814.693 283.991 814.693Z" stroke="#421A00" stroke-width="5" stroke-miterlimit="1.5" stroke-linecap="round" stroke-linejoin="round"/>
<path d="M229.169 726.876C215.353 726.876 204.153 715.678 204.153 701.865C204.153 688.052 215.353 676.854 229.169 676.854C242.985 676.854 254.185 688.052 254.185 701.865C254.185 715.678 242.985 726.876 229.169 726.876Z" fill="#C72425" stroke="#421A00" stroke-width="5" stroke-miterlimit="1.5" stroke-linecap="round" stroke-linejoin="round"/>
<path d="M383.101 653.035H319.715V770.223H383.101V653.035Z" fill="white" stroke="#421A00" stroke-width="5" stroke-miterlimit="1.5" stroke-linecap="round" stroke-linejoin="round"/>
<path fill-rule="evenodd" clip-rule="evenodd" d="M350.404 662.821L351.626 750.453C351.626 750.453 372.356 752.714 381.798 758.652L382.401 652.754C370.513 658.114 350.404 662.821 350.404 662.821Z" fill="#61778C"/>
<path d="M394.859 687.235H308.969V719.167H394.859V687.235Z" fill="#EDC7C8" stroke="#421A00" stroke-width="5" stroke-miterlimit="1.5" stroke-linecap="round" stroke-linejoin="round"/>
<mask id="mask1_1_1137" style="mask-type:luminance" maskUnits="userSpaceOnUse" x="296" y="750" width="111" height="65">
<path d="M406.261 814.827L296.552 814.598C296.552 814.598 298.167 750.676 350.382 750.479C403.382 750.278 406.261 814.827 406.261 814.827Z" fill="white"/>
</mask>
<g mask="url(#mask1_1_1137)">
<path fill-rule="evenodd" clip-rule="evenodd" d="M303.919 791.527C303.919 791.527 323.583 786.415 350.392 786.379C366.272 786.355 399.202 791.298 399.202 791.298L404.009 812.368L299.565 811.91L303.919 791.527Z" fill="#C72425" stroke="#C72425" stroke-width="5" stroke-miterlimit="1.5" stroke-linecap="round" stroke-linejoin="round"/>
<path fill-rule="evenodd" clip-rule="evenodd" d="M398.607 788.373H304.421C304.421 788.373 314.931 752.639 351.701 752.832C386.819 753.017 398.607 788.373 398.607 788.373Z" fill="white" stroke="white" stroke-width="5" stroke-miterlimit="1.5" stroke-linecap="round" stroke-linejoin="round"/>
</g>
<path fill-rule="evenodd" clip-rule="evenodd" d="M406.261 814.827L296.552 814.598C296.552 814.598 298.167 750.676 350.382 750.479C403.382 750.278 406.261 814.827 406.261 814.827Z" stroke="#421A00" stroke-width="5" stroke-miterlimit="1.5" stroke-linecap="round" stroke-linejoin="round"/>
<path d="M351.439 727.011C337.623 727.011 326.423 715.813 326.423 702C326.423 688.186 337.623 676.988 351.439 676.988C365.255 676.988 376.456 688.186 376.456 702C376.456 715.813 365.255 727.011 351.439 727.011Z" fill="#C72425" stroke="#421A00" stroke-width="5" stroke-miterlimit="1.5" stroke-linecap="round" stroke-linejoin="round"/>
<path fill-rule="evenodd" clip-rule="evenodd" d="M450.54 651.685C450.54 651.685 447.524 656.65 446.371 663.47C444.988 671.639 450.478 675.115 450.478 675.115L432.225 673.542C432.225 673.542 429.782 673.911 428.275 663.572C427.746 659.946 428.482 651.576 428.482 651.576L450.54 651.685Z" fill="white" stroke="#421A00" stroke-width="5" stroke-miterlimit="1.5" stroke-linecap="round" stroke-linejoin="round"/>
<path fill-rule="evenodd" clip-rule="evenodd" d="M462.408 650.51C462.408 650.51 464.559 656.35 465.487 663.959C466.6 673.073 461.268 681.962 461.268 681.962L480.274 680.037C480.274 680.037 488.019 675.571 490.212 664.205C490.984 660.217 492.713 650.564 492.713 650.564L462.408 650.51Z" fill="#C72425" stroke="#421A00" stroke-width="5" stroke-miterlimit="1.5" stroke-linecap="round" stroke-linejoin="round"/>
<path fill-rule="evenodd" clip-rule="evenodd" d="M425.783 560.352C425.784 558.474 427.311 556.952 429.188 556.953L490.433 557.01C492.309 557.011 493.834 558.537 493.832 560.414L493.761 636.691C493.759 638.57 492.232 640.092 490.355 640.091L429.111 640.034C427.234 640.033 425.71 638.507 425.712 636.628L425.783 560.352Z" fill="#D6EAF5" stroke="#421A00" stroke-width="5" stroke-miterlimit="1.5" stroke-linecap="round" stroke-linejoin="round"/>
<path fill-rule="evenodd" clip-rule="evenodd" d="M423.079 640.629C423.082 637.345 425.751 634.681 429.037 634.684L490.514 634.74C493.8 634.743 496.464 637.412 496.461 640.696L496.457 645.324C496.454 648.608 493.785 651.272 490.498 651.269L429.022 651.213C425.735 651.21 423.071 648.541 423.074 645.257L423.079 640.629Z" fill="#C72425" stroke="#421A00" stroke-width="5" stroke-miterlimit="1.5" stroke-linecap="round" stroke-linejoin="round"/>
<path d="M429.244 470.874L484.646 470.689L484.934 556.485L429.532 556.671L429.244 470.874Z" fill="white" stroke="#421A00" stroke-width="5" stroke-miterlimit="1.5" stroke-linecap="round" stroke-linejoin="round"/>
<path d="M449.924 494.418C430.141 494.418 414.104 478.384 414.104 458.605C414.104 438.826 430.141 422.792 449.924 422.792C469.707 422.792 485.744 438.826 485.744 458.605C485.744 478.384 469.707 494.418 449.924 494.418Z" fill="#C72425" stroke="#421A00" stroke-width="5" stroke-miterlimit="1.5" stroke-linecap="round" stroke-linejoin="round"/>
<path d="M475.443 449.695C471.648 438.271 463.159 431.542 449.35 430.13" stroke="white" stroke-width="5" stroke-miterlimit="1.5" stroke-linecap="round" stroke-linejoin="round"/>
<path d="M483.193 511.523H431.27V516.805H483.193V511.523Z" fill="#421A00"/>
<path d="M483.119 535.727H431.018V541.009H483.119V535.727Z" fill="#421A00"/>
<path fill-rule="evenodd" clip-rule="evenodd" d="M136.46 651.685C136.46 651.685 139.476 656.65 140.629 663.47C142.012 671.639 136.522 675.115 136.522 675.115L154.775 673.542C154.775 673.542 157.218 673.911 158.724 663.572C159.254 659.946 158.517 651.576 158.517 651.576L136.46 651.685Z" fill="white" stroke="#421A00" stroke-width="5" stroke-miterlimit="1.5" stroke-linecap="round" stroke-linejoin="round"/>
<path fill-rule="evenodd" clip-rule="evenodd" d="M124.592 650.51C124.592 650.51 122.441 656.35 121.513 663.959C120.4 673.073 125.732 681.962 125.732 681.962L106.726 680.037C106.726 680.037 98.9811 675.571 96.7875 664.205C96.0161 660.217 94.2871 650.564 94.2871 650.564L124.592 650.51Z" fill="#C72425" stroke="#421A00" stroke-width="5" stroke-miterlimit="1.5" stroke-linecap="round" stroke-linejoin="round"/>
<path fill-rule="evenodd" clip-rule="evenodd" d="M161.217 560.352C161.215 558.474 159.688 556.952 157.812 556.953L96.5671 557.01C94.6903 557.011 93.1662 558.537 93.168 560.414L93.2391 636.691C93.2408 638.57 94.7677 640.092 96.6445 640.091L157.889 640.034C159.766 640.033 161.29 638.507 161.288 636.628L161.217 560.352Z" fill="#D6EAF5" stroke="#421A00" stroke-width="5" stroke-miterlimit="1.5" stroke-linecap="round" stroke-linejoin="round"/>
<path fill-rule="evenodd" clip-rule="evenodd" d="M163.921 640.629C163.918 637.345 161.249 634.681 157.963 634.684L96.4862 634.74C93.1999 634.743 90.5358 637.412 90.5388 640.696L90.5431 645.324C90.5462 648.608 93.2152 651.272 96.5015 651.269L157.978 651.213C161.264 651.21 163.928 648.541 163.925 645.257L163.921 640.629Z" fill="#C72425" stroke="#421A00" stroke-width="5" stroke-miterlimit="1.5" stroke-linecap="round" stroke-linejoin="round"/>
<path d="M157.756 470.874L102.354 470.689L102.067 556.485L157.468 556.671L157.756 470.874Z" fill="white" stroke="#421A00" stroke-width="5" stroke-miterlimit="1.5" stroke-linecap="round" stroke-linejoin="round"/>
<path d="M137.076 494.418C156.859 494.418 172.896 478.384 172.896 458.605C172.896 438.826 156.859 422.792 137.076 422.792C117.293 422.792 101.256 438.826 101.256 458.605C101.256 478.384 117.293 494.418 137.076 494.418Z" fill="#C72425" stroke="#421A00" stroke-width="5" stroke-miterlimit="1.5" stroke-linecap="round" stroke-linejoin="round"/>
<path d="M109.672 450.072C113.467 438.648 121.956 431.919 135.765 430.507" stroke="white" stroke-width="5" stroke-miterlimit="1.5" stroke-linecap="round" stroke-linejoin="round"/>
<path d="M103.807 511.523H155.73V516.805H103.807V511.523Z" fill="#421A00"/>
<path d="M103.881 535.727H155.982V541.009H103.881V535.727Z" fill="#421A00"/>
<path d="M350.783 388.114H236.799V408.634H350.783V388.114Z" fill="#D6EAF5" stroke="#421A00" stroke-width="5" stroke-miterlimit="1.5" stroke-linecap="round" stroke-linejoin="round"/>
<path fill-rule="evenodd" clip-rule="evenodd" d="M415.326 470.255C415.326 436.675 388.058 409.417 354.475 409.417H232.772C199.189 409.417 171.921 436.675 171.921 470.255V601.163C171.921 634.737 199.189 662.001 232.772 662.001H354.475C388.058 662.001 415.326 634.737 415.326 601.163V470.255Z" fill="white"/>
<path fill-rule="evenodd" clip-rule="evenodd" d="M180.413 436.118C180.413 436.118 203.646 426.124 215.651 425.604C247.667 424.22 342.008 425.035 373.44 426.532C384.181 427.043 404.238 434.585 404.238 434.585C393.776 424.038 379.876 415.716 361.866 410.054L224.931 410.565C206.269 415.581 191.112 425.171 180.413 436.118Z" fill="#C72425"/>
<path fill-rule="evenodd" clip-rule="evenodd" d="M185.221 639.668C185.221 639.668 204.402 645.308 216.522 645.797C248.843 647.096 344.085 646.331 375.817 644.926C386.66 644.446 403.437 639.506 403.437 639.506C392.873 649.404 382.314 655.077 364.133 660.391L225.357 661.512C206.517 656.806 196.02 649.942 185.221 639.668Z" fill="#C72425"/>
<path fill-rule="evenodd" clip-rule="evenodd" d="M415.326 470.255C415.326 436.675 388.058 409.417 354.475 409.417H232.772C199.189 409.417 171.921 436.675 171.921 470.255V601.163C171.921 634.737 199.189 662.001 232.772 662.001H354.475C388.058 662.001 415.326 634.737 415.326 601.163V470.255Z" stroke="#421A00" stroke-width="5" stroke-miterlimit="1.5" stroke-linecap="round" stroke-linejoin="round"/>
<path fill-rule="evenodd" clip-rule="evenodd" d="M386.211 484.04C386.211 459.9 366.606 440.3 342.461 440.3H249.952C225.803 440.3 206.202 459.9 206.202 484.04C206.202 508.179 225.803 527.779 249.952 527.779H342.461C366.606 527.779 386.211 508.179 386.211 484.04Z" stroke="#421A00" stroke-width="5" stroke-miterlimit="1.5" stroke-linecap="round" stroke-linejoin="round"/>
<path fill-rule="evenodd" clip-rule="evenodd" d="M386.211 484.04C386.211 459.9 366.606 440.3 342.461 440.3H249.952C225.803 440.3 206.202 459.9 206.202 484.04C206.202 508.179 225.803 527.779 249.952 527.779H342.461C366.606 527.779 386.211 508.179 386.211 484.04Z" fill="#D6EAF5"/>
<path d="M414.078 563.966H174.059V596.911H414.078V563.966Z" fill="#D6EAF5"/>
<path d="M314.208 498.155C320.802 498.155 326.148 492.811 326.148 486.218C326.148 479.624 320.802 474.28 314.208 474.28C307.613 474.28 302.268 479.624 302.268 486.218C302.268 492.811 307.613 498.155 314.208 498.155Z" fill="#421A00"/>
<path d="M350.431 498.155C357.025 498.155 362.371 492.811 362.371 486.218C362.371 479.624 357.025 474.28 350.431 474.28C343.836 474.28 338.49 479.624 338.49 486.218C338.49 492.811 343.836 498.155 350.431 498.155Z" fill="#C72425"/>
<path d="M240.127 697.265C243.349 697.265 245.961 694.654 245.961 691.433C245.961 688.211 243.349 685.6 240.127 685.6C236.905 685.6 234.293 688.211 234.293 691.433C234.293 694.654 236.905 697.265 240.127 697.265Z" fill="white"/>
<path d="M374.574 697.265C377.796 697.265 380.408 694.654 380.408 691.433C380.408 688.211 377.796 685.6 374.574 685.6C371.352 685.6 368.74 688.211 368.74 691.433C368.74 694.654 371.352 697.265 374.574 697.265Z" fill="white"/>
<path fill-rule="evenodd" clip-rule="evenodd" d="M122.357 214.407C76.9597 245.428 81.3285 277.616 120.654 310.723L122.357 214.407Z" fill="white"/>
<path d="M122.357 214.407C76.9597 245.428 81.3285 277.616 120.654 310.723" stroke="white" stroke-width="5" stroke-miterlimit="1.5" stroke-linecap="round" stroke-linejoin="round"/>
<path fill-rule="evenodd" clip-rule="evenodd" d="M152.507 206.147L128.955 213.298L128.05 313.058L152.735 321.908L152.507 206.147Z" fill="#C72425" stroke="#C72425" stroke-width="5" stroke-miterlimit="1.5" stroke-linecap="round" stroke-linejoin="round"/>
<mask id="mask2_1_1137" style="mask-type:luminance" maskUnits="userSpaceOnUse" x="89" y="203" width="66" height="123">
<path d="M153.114 203.281C153.114 203.281 88.7268 214.832 89.3569 262.554C90.0135 312.014 154.247 325.348 154.247 325.348" fill="white"/>
</mask>
<g mask="url(#mask2_1_1137)">
<path fill-rule="evenodd" clip-rule="evenodd" d="M89.9581 262.833L121.337 285.581L120.583 309.285C105.555 304.06 92.86 285.469 89.9581 262.833Z" fill="#C72425"/>
</g>
<path d="M153.114 203.281C153.114 203.281 88.7268 214.832 89.3569 262.554C90.0135 312.014 154.247 325.348 154.247 325.348" stroke="#421A00" stroke-width="5" stroke-miterlimit="1.5" stroke-linecap="round" stroke-linejoin="round"/>
<path d="M121.454 212.526L128.927 212.57L128.057 313.907L120.584 313.862L121.454 212.526Z" fill="#421A00"/>
<path fill-rule="evenodd" clip-rule="evenodd" d="M465.483 214.407C511.154 245.713 506.689 277.859 467.187 310.723L465.483 214.407Z" fill="white"/>
<path d="M465.483 214.407C511.154 245.713 506.689 277.859 467.187 310.723" stroke="white" stroke-width="5" stroke-miterlimit="1.5" stroke-linecap="round" stroke-linejoin="round"/>
<path fill-rule="evenodd" clip-rule="evenodd" d="M435.333 206.147L458.885 213.298L459.791 313.058L435.105 321.908L435.333 206.147Z" fill="#C72425" stroke="#C72425" stroke-width="5" stroke-miterlimit="1.5" stroke-linecap="round" stroke-linejoin="round"/>
<path fill-rule="evenodd" clip-rule="evenodd" d="M497.636 263.53L466.258 286.278L467.011 309.982C482.04 304.757 494.735 286.166 497.636 263.53Z" fill="#C72425"/>
<path d="M434.727 203.281C434.727 203.281 499.114 214.832 498.484 262.554C497.827 312.014 433.594 325.348 433.594 325.348" stroke="#421A00" stroke-width="5" stroke-miterlimit="1.5" stroke-linecap="round" stroke-linejoin="round"/>
<path d="M466.386 212.526L458.914 212.57L459.783 313.907L467.256 313.862L466.386 212.526Z" fill="#421A00"/>
<path fill-rule="evenodd" clip-rule="evenodd" d="M435.718 214.931C435.718 172.421 401.197 137.909 358.68 137.909H228.931C186.414 137.909 151.894 172.421 151.894 214.931V309.347C151.894 351.857 186.414 386.369 228.931 386.369H358.68C401.197 386.369 435.718 351.857 435.718 309.347V214.931Z" fill="white"/>
<path fill-rule="evenodd" clip-rule="evenodd" d="M163.151 349.98C163.151 349.98 190.076 363.894 203.989 364.618C241.091 366.545 350.423 365.41 386.848 363.326C399.296 362.614 422.54 352.115 422.54 352.115C410.416 366.798 394.307 378.384 373.436 386.267L214.743 385.555C193.115 378.573 175.55 365.221 163.151 349.98Z" fill="#C72425"/>
<path fill-rule="evenodd" clip-rule="evenodd" d="M435.704 214.931C435.704 172.421 401.184 137.909 358.667 137.909H228.918C186.401 137.909 151.881 172.421 151.881 214.931V309.347C151.881 351.857 186.401 386.369 228.918 386.369H358.667C401.184 386.369 435.704 351.857 435.704 309.347V214.931Z" stroke="#421A00" stroke-width="5" stroke-miterlimit="1.5" stroke-linecap="round" stroke-linejoin="round"/>
<path fill-rule="evenodd" clip-rule="evenodd" d="M402.716 221.615C402.716 199.629 384.86 181.782 362.873 181.782H224.735C202.748 181.782 184.892 199.629 184.892 221.615V301.286C184.892 323.273 202.748 341.12 224.735 341.12H362.873C384.86 341.12 402.716 323.273 402.716 301.286V221.615Z" fill="#D6EAF5" stroke="#421A00" stroke-width="5" stroke-miterlimit="1.5" stroke-linecap="round" stroke-linejoin="round"/>
<path d="M239.979 277.636C250.437 277.636 258.915 269.16 258.915 258.704C258.915 248.248 250.437 239.771 239.979 239.771C229.521 239.771 221.043 248.248 221.043 258.704C221.043 269.16 229.521 277.636 239.979 277.636Z" fill="#421A00" stroke="#421A00" stroke-width="5" stroke-miterlimit="1.5" stroke-linecap="round" stroke-linejoin="round"/>
<path d="M229.202 260.272C231.866 260.272 234.025 258.074 234.025 255.363C234.025 252.653 231.866 250.455 229.202 250.455C226.538 250.455 224.379 252.653 224.379 255.363C224.379 258.074 226.538 260.272 229.202 260.272Z" fill="white"/>
<path d="M236.621 264.829C237.666 264.829 238.514 263.967 238.514 262.902C238.514 261.838 237.666 260.975 236.621 260.975C235.575 260.975 234.727 261.838 234.727 262.902C234.727 263.967 235.575 264.829 236.621 264.829Z" fill="white"/>
<path d="M353.587 278.395C364.045 278.395 372.523 269.919 372.523 259.463C372.523 249.007 364.045 240.53 353.587 240.53C343.129 240.53 334.651 249.007 334.651 259.463C334.651 269.919 343.129 278.395 353.587 278.395Z" fill="#421A00" stroke="#421A00" stroke-width="5" stroke-miterlimit="1.5" stroke-linecap="round" stroke-linejoin="round"/>
<path d="M343.957 262.872C346.988 262.872 349.445 260.351 349.445 257.241C349.445 254.131 346.988 251.61 343.957 251.61C340.926 251.61 338.469 254.131 338.469 257.241C338.469 260.351 340.926 262.872 343.957 262.872Z" fill="white"/>
<path d="M349.431 270.144C350.477 270.144 351.325 269.281 351.325 268.217C351.325 267.152 350.477 266.29 349.431 266.29C348.386 266.29 347.538 267.152 347.538 268.217C347.538 269.281 348.386 270.144 349.431 270.144Z" fill="white"/>
<path d="M292.13 63.243H295.144V136.326H292.13V63.243Z" fill="#421A00" stroke="#421A00" stroke-width="5" stroke-miterlimit="1.5" stroke-linecap="round" stroke-linejoin="round"/>
<path d="M294.453 61.6514C282.949 61.6514 273.623 52.3274 273.623 40.8257C273.623 29.3239 282.949 19.9998 294.453 19.9998C305.956 19.9998 315.282 29.3239 315.282 40.8257C315.282 52.3274 305.956 61.6514 294.453 61.6514Z" fill="#C72425" stroke="#421A00" stroke-width="5" stroke-miterlimit="1.5" stroke-linecap="round" stroke-linejoin="round"/>
</g>
<defs>
<filter id="filter0_dddd_1_1137" x="0.852295" y="0.499832" width="586.136" height="1118.83" filterUnits="userSpaceOnUse" color-interpolation-filters="sRGB">
<feFlood flood-opacity="0" result="BackgroundImageFix"/>
<feColorMatrix in="SourceAlpha" type="matrix" values="0 0 0 0 0 0 0 0 0 0 0 0 0 0 0 0 0 0 127 0" result="hardAlpha"/>
<feOffset dy="13"/>
<feGaussianBlur stdDeviation="15"/>
<feColorMatrix type="matrix" values="0 0 0 0 0 0 0 0 0 0 0 0 0 0 0 0 0 0 0.1 0"/>
<feBlend mode="normal" in2="BackgroundImageFix" result="effect1_dropShadow_1_1137"/>
<feColorMatrix in="SourceAlpha" type="matrix" values="0 0 0 0 0 0 0 0 0 0 0 0 0 0 0 0 0 0 127 0" result="hardAlpha"/>
<feOffset dy="54"/>
<feGaussianBlur stdDeviation="27"/>
<feColorMatrix type="matrix" values="0 0 0 0 0 0 0 0 0 0 0 0 0 0 0 0 0 0 0.09 0"/>
<feBlend mode="normal" in2="effect1_dropShadow_1_1137" result="effect2_dropShadow_1_1137"/>
<feColorMatrix in="SourceAlpha" type="matrix" values="0 0 0 0 0 0 0 0 0 0 0 0 0 0 0 0 0 0 127 0" result="hardAlpha"/>
<feOffset dy="121"/>
<feGaussianBlur stdDeviation="36.5"/>
<feColorMatrix type="matrix" values="0 0 0 0 0 0 0 0 0 0 0 0 0 0 0 0 0 0 0.05 0"/>
<feBlend mode="normal" in2="effect2_dropShadow_1_1137" result="effect3_dropShadow_1_1137"/>
<feColorMatrix in="SourceAlpha" type="matrix" values="0 0 0 0 0 0 0 0 0 0 0 0 0 0 0 0 0 0 127 0" result="hardAlpha"/>
<feOffset dy="216"/>
<feGaussianBlur stdDeviation="43"/>
<feColorMatrix type="matrix" values="0 0 0 0 0 0 0 0 0 0 0 0 0 0 0 0 0 0 0.01 0"/>
<feBlend mode="normal" in2="effect3_dropShadow_1_1137" result="effect4_dropShadow_1_1137"/>
<feBlend mode="normal" in="SourceGraphic" in2="effect4_dropShadow_1_1137" result="shape"/>
</filter>
</defs>
</svg>
